<svg width="109" height="38" viewBox="0 0 109 38" fill="none" xmlns="http://www.w3.org/2000/svg">
<path d="M46.8205 28.2699V8.56363H50.4239V25.4547H59.151V28.2699H46.8205ZM68.3093 28.6077C66.958 28.6077 65.7381 28.298 64.6496 27.6787C63.5798 27.0593 62.7259 26.2054 62.0878 25.1169C61.4684 24.0096 61.1588 22.7333 61.1588 21.2882C61.1588 19.8431 61.4778 18.5763 62.1159 17.4877C62.754 16.3804 63.608 15.5171 64.6777 14.8978C65.7663 14.2784 66.9862 13.9688 68.3375 13.9688C69.67 13.9688 70.8711 14.2784 71.9409 14.8978C73.0294 15.5171 73.8833 16.3804 74.5027 17.4877C75.1408 18.5763 75.4598 19.8431 75.4598 21.2882C75.4598 22.7333 75.1408 24.0096 74.5027 25.1169C73.8833 26.2054 73.0294 27.0593 71.9409 27.6787C70.8523 28.298 69.6418 28.6077 68.3093 28.6077ZM68.3093 25.4828C69.2477 25.4828 70.0641 25.1356 70.7585 24.4412C71.4529 23.728 71.8001 22.677 71.8001 21.2882C71.8001 19.8994 71.4529 18.8578 70.7585 18.1634C70.0641 17.4502 69.2571 17.0936 68.3375 17.0936C67.3803 17.0936 66.5545 17.4502 65.8601 18.1634C65.1845 18.8578 64.8466 19.8994 64.8466 21.2882C64.8466 22.677 65.1845 23.728 65.8601 24.4412C66.5545 25.1356 67.3709 25.4828 68.3093 25.4828ZM83.7138 24.1034C83.0382 24.1034 82.4094 24.0283 81.8276 23.8782L80.786 24.9198C81.1051 25.0887 81.5367 25.2295 82.081 25.3421C82.6253 25.4547 83.5074 25.5673 84.7273 25.6799C86.5853 25.8488 87.9366 26.2898 88.7811 27.003C89.6257 27.7162 90.0479 28.7015 90.0479 29.959C90.0479 30.7847 89.8227 31.5636 89.3723 32.2956C88.9219 33.0463 88.2275 33.6468 87.2891 34.0973C86.3507 34.5665 85.1495 34.8011 83.6857 34.8011C81.6963 34.8011 80.0916 34.4257 78.8717 33.675C77.6518 32.943 77.0418 31.8357 77.0418 30.3531C77.0418 29.0956 77.6518 28.0071 78.8717 27.0875C78.4963 26.9186 78.1679 26.7403 77.8864 26.5526C77.6236 26.3649 77.389 26.1679 77.1826 25.9614V25.3139L79.6318 22.724C78.5433 21.7668 77.999 20.5375 77.999 19.0361C77.999 18.0977 78.2242 17.2438 78.6746 16.4743C79.1438 15.7048 79.8007 15.0948 80.6453 14.6444C81.4898 14.194 82.5127 13.9688 83.7138 13.9688C84.5021 13.9688 85.234 14.0814 85.9096 14.3066H91.2022V16.5024L88.8093 16.6713C89.1846 17.3845 89.3723 18.1728 89.3723 19.0361C89.3723 19.9745 89.1471 20.8284 88.6967 21.5979C88.2462 22.3674 87.5894 22.9773 86.726 23.4278C85.8815 23.8782 84.8774 24.1034 83.7138 24.1034ZM83.7138 21.3445C84.4457 21.3445 85.0463 21.1475 85.5155 20.7533C86.0035 20.3592 86.2475 19.7962 86.2475 19.0642C86.2475 18.3323 86.0035 17.7693 85.5155 17.3751C85.0463 16.981 84.4457 16.7839 83.7138 16.7839C82.9443 16.7839 82.325 16.981 81.8558 17.3751C81.3866 17.7693 81.152 18.3323 81.152 19.0642C81.152 19.7962 81.3866 20.3592 81.8558 20.7533C82.325 21.1475 82.9443 21.3445 83.7138 21.3445ZM80.3356 29.9871C80.3356 30.6815 80.6546 31.1976 81.2928 31.5355C81.9496 31.892 82.7473 32.0703 83.6857 32.0703C84.5865 32.0703 85.3185 31.8827 85.8815 31.5073C86.4445 31.1507 86.726 30.6627 86.726 30.0434C86.726 29.5367 86.5384 29.1144 86.163 28.7766C85.8064 28.4388 85.0839 28.2323 83.9953 28.1572C83.2258 28.1009 82.5127 28.0165 81.8558 27.9039C81.3115 28.2042 80.9174 28.5326 80.6734 28.8892C80.4482 29.2458 80.3356 29.6118 80.3356 29.9871ZM99.98 28.6077C98.6287 28.6077 97.4088 28.298 96.3203 27.6787C95.2505 27.0593 94.3966 26.2054 93.7585 25.1169C93.1391 24.0096 92.8295 22.7333 92.8295 21.2882C92.8295 19.8431 93.1485 18.5763 93.7866 17.4877C94.4247 16.3804 95.2787 15.5171 96.3484 14.8978C97.437 14.2784 98.6569 13.9688 100.008 13.9688C101.341 13.9688 102.542 14.2784 103.612 14.8978C104.7 15.5171 105.554 16.3804 106.173 17.4877C106.812 18.5763 107.131 19.8431 107.131 21.2882C107.131 22.7333 106.812 24.0096 106.173 25.1169C105.554 26.2054 104.7 27.0593 103.612 27.6787C102.523 28.298 101.313 28.6077 99.98 28.6077ZM99.98 25.4828C100.918 25.4828 101.735 25.1356 102.429 24.4412C103.124 23.728 103.471 22.677 103.471 21.2882C103.471 19.8994 103.124 18.8578 102.429 18.1634C101.735 17.4502 100.928 17.0936 100.008 17.0936C99.051 17.0936 98.2252 17.4502 97.5308 18.1634C96.8552 18.8578 96.5173 19.8994 96.5173 21.2882C96.5173 22.677 96.8552 23.728 97.5308 24.4412C98.2252 25.1356 99.0416 25.4828 99.98 25.4828Z" fill="#170F49"/>
<path d="M0.377563 16.08C0.377563 7.62579 7.23102 0.772339 15.6852 0.772339V21.9179C15.6852 30.3721 8.83173 37.2255 0.377563 37.2255V16.08Z" fill="#4A3AFF"/>
<path d="M17.9061 9.09033C17.9061 4.49641 21.6302 0.772293 26.2241 0.772293C30.818 0.772293 34.5421 4.4964 34.5421 9.09033V9.57057C34.5421 14.1645 30.818 17.8886 26.2241 17.8886C21.6302 17.8886 17.9061 14.1645 17.9061 9.57057V9.09033Z" fill="#4CBFFF"/>
<path d="M17.9061 28.4275C17.9061 23.8336 21.6302 20.1095 26.2241 20.1095C30.818 20.1095 34.5421 23.8336 34.5421 28.4275V28.9078C34.5421 33.5017 30.818 37.2258 26.2241 37.2258C21.6302 37.2258 17.9061 33.5017 17.9061 28.9078V28.4275Z" fill="#962DFF"/>
</svg>
